<mxfile host="app.diagrams.net" modified="2021-01-08T13:26:54.884Z" agent="5.0 (X11)" etag="WtesGGNw_Zc9KSGtvD1Y" version="14.1.8" type="github">
  <diagram id="xuc4DWIO_O0dBoMzTeBS" name="Page-1">
    <mxGraphModel dx="3122" dy="776" grid="1" gridSize="10" guides="1" tooltips="1" connect="1" arrows="1" fold="1" page="1" pageScale="1" pageWidth="850" pageHeight="1100" background="#114B5F" math="1" shadow="1">
      <root>
        <mxCell id="0" />
        <mxCell id="1" parent="0" />
        <mxCell id="IKa5RHeawWwGmrkT48Z7-75" value="" style="shape=step;perimeter=stepPerimeter;whiteSpace=wrap;html=1;fixedSize=1;fontColor=#ffffff;fillColor=#6a00ff;strokeColor=#3700CC;" parent="1" vertex="1">
          <mxGeometry x="-925" y="160" width="1450" height="150" as="geometry" />
        </mxCell>
        <mxCell id="qB2Rg0o0fhjjosjWZkIm-90" value="Après un tir" style="swimlane;html=1;startSize=20;horizontal=1;containerType=tree;newEdgeStyle={&quot;edgeStyle&quot;:&quot;elbowEdgeStyle&quot;,&quot;startArrow&quot;:&quot;none&quot;,&quot;endArrow&quot;:&quot;none&quot;};rounded=0;sketch=0;strokeColor=#028090;fontColor=#E4FDE1;glass=0;noLabel=0;" parent="1" vertex="1">
          <mxGeometry x="-410" y="10" width="540" height="430" as="geometry">
            <mxRectangle x="510" y="60" width="80" height="20" as="alternateBounds" />
          </mxGeometry>
        </mxCell>
        <mxCell id="qB2Rg0o0fhjjosjWZkIm-91" value="" style="edgeStyle=elbowEdgeStyle;elbow=vertical;startArrow=none;endArrow=none;rounded=0;" parent="qB2Rg0o0fhjjosjWZkIm-90" source="qB2Rg0o0fhjjosjWZkIm-93" target="qB2Rg0o0fhjjosjWZkIm-94" edge="1">
          <mxGeometry relative="1" as="geometry" />
        </mxCell>
        <mxCell id="qB2Rg0o0fhjjosjWZkIm-92" value="" style="edgeStyle=elbowEdgeStyle;elbow=vertical;startArrow=none;endArrow=none;rounded=0;" parent="qB2Rg0o0fhjjosjWZkIm-90" source="qB2Rg0o0fhjjosjWZkIm-93" target="qB2Rg0o0fhjjosjWZkIm-95" edge="1">
          <mxGeometry relative="1" as="geometry" />
        </mxCell>
        <UserObject label="&lt;div style=&quot;font-size: 20px&quot;&gt;Tir en : D4&lt;br style=&quot;font-size: 20px&quot;&gt;&lt;/div&gt;&lt;div style=&quot;font-size: 20px&quot;&gt;Case du tableau :&lt;/div&gt;&lt;div style=&quot;font-size: 20px&quot;&gt;[3][3]&lt;br style=&quot;font-size: 20px&quot;&gt;&lt;/div&gt;" treeRoot="1" id="qB2Rg0o0fhjjosjWZkIm-93">
          <mxCell style="whiteSpace=wrap;html=1;align=center;treeFolding=1;treeMoving=1;newEdgeStyle={&quot;edgeStyle&quot;:&quot;elbowEdgeStyle&quot;,&quot;startArrow&quot;:&quot;none&quot;,&quot;endArrow&quot;:&quot;none&quot;};fontSize=20;" parent="qB2Rg0o0fhjjosjWZkIm-90" vertex="1">
            <mxGeometry x="150" y="40" width="250" height="150" as="geometry" />
          </mxCell>
        </UserObject>
        <mxCell id="qB2Rg0o0fhjjosjWZkIm-94" value="&lt;div style=&quot;font-size: 20px&quot;&gt;[x][y] == &#39;.&#39;&lt;br style=&quot;font-size: 20px&quot;&gt;&lt;/div&gt;&lt;div style=&quot;font-size: 20px&quot;&gt;A l&#39;eau&lt;br&gt;&lt;/div&gt;&lt;div&gt;[x][y] = &#39;o&#39;&lt;br&gt;&lt;/div&gt;" style="whiteSpace=wrap;html=1;align=center;verticalAlign=middle;treeFolding=1;treeMoving=1;newEdgeStyle={&quot;edgeStyle&quot;:&quot;elbowEdgeStyle&quot;,&quot;startArrow&quot;:&quot;none&quot;,&quot;endArrow&quot;:&quot;none&quot;};fontSize=20;fontColor=#4D4D4D;" parent="qB2Rg0o0fhjjosjWZkIm-90" vertex="1">
          <mxGeometry x="70" y="270" width="170" height="120" as="geometry" />
        </mxCell>
        <mxCell id="qB2Rg0o0fhjjosjWZkIm-95" value="&lt;div style=&quot;font-size: 20px&quot;&gt;[3][3] == &#39;3&#39;&lt;br style=&quot;font-size: 20px&quot;&gt;&lt;/div&gt;&lt;div style=&quot;font-size: 20px&quot;&gt;Touché&lt;/div&gt;&lt;div&gt;[3][3] = &#39;x&#39;&lt;br&gt;&lt;/div&gt;" style="whiteSpace=wrap;html=1;align=center;verticalAlign=middle;treeFolding=1;treeMoving=1;newEdgeStyle={&quot;edgeStyle&quot;:&quot;elbowEdgeStyle&quot;,&quot;startArrow&quot;:&quot;none&quot;,&quot;endArrow&quot;:&quot;none&quot;};fillColor=#008a00;strokeColor=#005700;fontColor=#ffffff;fontSize=20;" parent="qB2Rg0o0fhjjosjWZkIm-90" vertex="1">
          <mxGeometry x="320" y="270" width="170" height="120" as="geometry" />
        </mxCell>
        <mxCell id="IKa5RHeawWwGmrkT48Z7-1" value="" style="shape=table;html=1;whiteSpace=wrap;startSize=0;container=1;collapsible=0;childLayout=tableLayout;perimeter=rectanglePerimeter;swimlaneFillColor=none;rounded=1;shadow=1;sketch=0;opacity=80;fontSize=50;direction=north;flipH=0;flipV=0;verticalAlign=middle;labelPosition=center;verticalLabelPosition=middle;align=center;horizontal=0;spacingTop=-15;fillColor=#F45B69;fontColor=#E4FDE1;strokeColor=none;" parent="1" vertex="1">
          <mxGeometry x="140" y="20" width="390" height="390" as="geometry" />
        </mxCell>
        <mxCell id="IKa5RHeawWwGmrkT48Z7-2" value="" style="shape=partialRectangle;html=1;whiteSpace=wrap;collapsible=0;dropTarget=0;pointerEvents=0;fillColor=none;top=0;left=0;bottom=0;right=0;points=[[0,0.5],[1,0.5]];portConstraint=eastwest;fontSize=50;direction=north;flipH=0;flipV=0;verticalAlign=middle;labelPosition=center;verticalLabelPosition=middle;align=center;horizontal=0;spacingTop=-15;strokeColor=#028090;fontColor=#E4FDE1;" parent="IKa5RHeawWwGmrkT48Z7-1" vertex="1">
          <mxGeometry width="390" height="49" as="geometry" />
        </mxCell>
        <mxCell id="IKa5RHeawWwGmrkT48Z7-3" value="." style="shape=partialRectangle;html=1;whiteSpace=wrap;connectable=0;overflow=hidden;fillColor=none;top=0;left=0;bottom=0;right=0;fontSize=50;direction=north;flipH=0;flipV=0;verticalAlign=middle;labelPosition=center;verticalLabelPosition=middle;align=center;horizontal=0;spacingTop=-15;strokeColor=#028090;fontColor=#E4FDE1;" parent="IKa5RHeawWwGmrkT48Z7-2" vertex="1">
          <mxGeometry width="49" height="49" as="geometry" />
        </mxCell>
        <mxCell id="IKa5RHeawWwGmrkT48Z7-4" value="." style="shape=partialRectangle;html=1;whiteSpace=wrap;connectable=0;overflow=hidden;fillColor=none;top=0;left=0;bottom=0;right=0;fontSize=50;direction=north;flipH=0;flipV=0;verticalAlign=middle;labelPosition=center;verticalLabelPosition=middle;align=center;horizontal=0;spacingTop=-15;strokeColor=#028090;fontColor=#E4FDE1;" parent="IKa5RHeawWwGmrkT48Z7-2" vertex="1">
          <mxGeometry x="49" width="49" height="49" as="geometry" />
        </mxCell>
        <mxCell id="IKa5RHeawWwGmrkT48Z7-5" value="2" style="shape=partialRectangle;html=1;whiteSpace=wrap;connectable=0;overflow=hidden;fillColor=none;top=0;left=0;bottom=0;right=0;fontSize=50;direction=north;flipH=0;flipV=0;verticalAlign=top;labelPosition=center;verticalLabelPosition=middle;align=center;horizontal=1;spacingTop=0;strokeColor=#028090;fontColor=#E4FDE1;" parent="IKa5RHeawWwGmrkT48Z7-2" vertex="1">
          <mxGeometry x="98" width="48" height="49" as="geometry" />
        </mxCell>
        <mxCell id="IKa5RHeawWwGmrkT48Z7-6" value="." style="shape=partialRectangle;html=1;whiteSpace=wrap;connectable=0;overflow=hidden;fillColor=none;top=0;left=0;bottom=0;right=0;fontSize=50;direction=north;flipH=0;flipV=0;verticalAlign=middle;labelPosition=center;verticalLabelPosition=middle;align=center;horizontal=0;spacingTop=-15;strokeColor=#028090;fontColor=#E4FDE1;" parent="IKa5RHeawWwGmrkT48Z7-2" vertex="1">
          <mxGeometry x="146" width="49" height="49" as="geometry" />
        </mxCell>
        <mxCell id="IKa5RHeawWwGmrkT48Z7-7" value="." style="shape=partialRectangle;html=1;whiteSpace=wrap;connectable=0;overflow=hidden;fillColor=none;top=0;left=0;bottom=0;right=0;fontSize=50;direction=north;flipH=0;flipV=0;verticalAlign=middle;labelPosition=center;verticalLabelPosition=middle;align=center;horizontal=0;spacingTop=-15;strokeColor=#028090;fontColor=#E4FDE1;" parent="IKa5RHeawWwGmrkT48Z7-2" vertex="1">
          <mxGeometry x="195" width="49" height="49" as="geometry" />
        </mxCell>
        <mxCell id="IKa5RHeawWwGmrkT48Z7-8" value="." style="shape=partialRectangle;html=1;whiteSpace=wrap;connectable=0;overflow=hidden;fillColor=none;top=0;left=0;bottom=0;right=0;fontSize=50;direction=north;flipH=0;flipV=0;verticalAlign=middle;labelPosition=center;verticalLabelPosition=middle;align=center;horizontal=0;spacingTop=-15;strokeColor=#028090;fontColor=#E4FDE1;" parent="IKa5RHeawWwGmrkT48Z7-2" vertex="1">
          <mxGeometry x="244" width="49" height="49" as="geometry" />
        </mxCell>
        <mxCell id="IKa5RHeawWwGmrkT48Z7-9" value="." style="shape=partialRectangle;html=1;whiteSpace=wrap;connectable=0;overflow=hidden;fillColor=none;top=0;left=0;bottom=0;right=0;fontSize=50;direction=north;flipH=0;flipV=0;verticalAlign=middle;labelPosition=center;verticalLabelPosition=middle;align=center;horizontal=0;spacingTop=-15;strokeColor=#028090;fontColor=#E4FDE1;" parent="IKa5RHeawWwGmrkT48Z7-2" vertex="1">
          <mxGeometry x="293" width="48" height="49" as="geometry" />
        </mxCell>
        <mxCell id="IKa5RHeawWwGmrkT48Z7-10" value="." style="shape=partialRectangle;html=1;whiteSpace=wrap;connectable=0;overflow=hidden;fillColor=none;top=0;left=0;bottom=0;right=0;fontSize=50;direction=north;flipH=0;flipV=0;verticalAlign=middle;labelPosition=center;verticalLabelPosition=middle;align=center;horizontal=0;spacingTop=-15;strokeColor=#028090;fontColor=#E4FDE1;" parent="IKa5RHeawWwGmrkT48Z7-2" vertex="1">
          <mxGeometry x="341" width="49" height="49" as="geometry" />
        </mxCell>
        <mxCell id="IKa5RHeawWwGmrkT48Z7-11" value="" style="shape=partialRectangle;html=1;whiteSpace=wrap;collapsible=0;dropTarget=0;pointerEvents=0;fillColor=none;top=0;left=0;bottom=0;right=0;points=[[0,0.5],[1,0.5]];portConstraint=eastwest;fontSize=50;direction=north;flipH=0;flipV=0;verticalAlign=middle;labelPosition=center;verticalLabelPosition=middle;align=center;horizontal=0;spacingTop=-15;strokeColor=#028090;fontColor=#E4FDE1;" parent="IKa5RHeawWwGmrkT48Z7-1" vertex="1">
          <mxGeometry y="49" width="390" height="49" as="geometry" />
        </mxCell>
        <mxCell id="IKa5RHeawWwGmrkT48Z7-12" value="." style="shape=partialRectangle;html=1;whiteSpace=wrap;connectable=0;overflow=hidden;fillColor=none;top=0;left=0;bottom=0;right=0;fontSize=50;direction=north;flipH=0;flipV=0;verticalAlign=middle;labelPosition=center;verticalLabelPosition=middle;align=center;horizontal=0;spacingTop=-15;strokeColor=#028090;fontColor=#E4FDE1;" parent="IKa5RHeawWwGmrkT48Z7-11" vertex="1">
          <mxGeometry width="49" height="49" as="geometry" />
        </mxCell>
        <mxCell id="IKa5RHeawWwGmrkT48Z7-13" value="." style="shape=partialRectangle;html=1;whiteSpace=wrap;connectable=0;overflow=hidden;fillColor=none;top=0;left=0;bottom=0;right=0;fontSize=50;direction=north;flipH=0;flipV=0;verticalAlign=middle;labelPosition=center;verticalLabelPosition=middle;align=center;horizontal=0;spacingTop=-15;strokeColor=#028090;fontColor=#E4FDE1;" parent="IKa5RHeawWwGmrkT48Z7-11" vertex="1">
          <mxGeometry x="49" width="49" height="49" as="geometry" />
        </mxCell>
        <mxCell id="IKa5RHeawWwGmrkT48Z7-14" value="2" style="shape=partialRectangle;html=1;whiteSpace=wrap;connectable=0;overflow=hidden;fillColor=none;top=0;left=0;bottom=0;right=0;fontSize=50;direction=north;flipH=0;flipV=0;verticalAlign=top;labelPosition=center;verticalLabelPosition=middle;align=center;horizontal=1;spacingTop=0;strokeColor=#028090;fontColor=#E4FDE1;" parent="IKa5RHeawWwGmrkT48Z7-11" vertex="1">
          <mxGeometry x="98" width="48" height="49" as="geometry" />
        </mxCell>
        <mxCell id="IKa5RHeawWwGmrkT48Z7-15" value="." style="shape=partialRectangle;html=1;whiteSpace=wrap;connectable=0;overflow=hidden;fillColor=none;top=0;left=0;bottom=0;right=0;fontSize=50;direction=north;flipH=0;flipV=0;verticalAlign=middle;labelPosition=center;verticalLabelPosition=middle;align=center;horizontal=0;spacingTop=-15;strokeColor=#028090;fontColor=#E4FDE1;" parent="IKa5RHeawWwGmrkT48Z7-11" vertex="1">
          <mxGeometry x="146" width="49" height="49" as="geometry" />
        </mxCell>
        <mxCell id="IKa5RHeawWwGmrkT48Z7-16" value="." style="shape=partialRectangle;html=1;whiteSpace=wrap;connectable=0;overflow=hidden;fillColor=none;top=0;left=0;bottom=0;right=0;fontSize=50;direction=north;flipH=0;flipV=0;verticalAlign=middle;labelPosition=center;verticalLabelPosition=middle;align=center;horizontal=0;spacingTop=-15;strokeColor=#028090;fontColor=#E4FDE1;" parent="IKa5RHeawWwGmrkT48Z7-11" vertex="1">
          <mxGeometry x="195" width="49" height="49" as="geometry" />
        </mxCell>
        <mxCell id="IKa5RHeawWwGmrkT48Z7-17" value="." style="shape=partialRectangle;html=1;whiteSpace=wrap;connectable=0;overflow=hidden;fillColor=none;top=0;left=0;bottom=0;right=0;fontSize=50;direction=north;flipH=0;flipV=0;verticalAlign=middle;labelPosition=center;verticalLabelPosition=middle;align=center;horizontal=0;spacingTop=-15;strokeColor=#028090;fontColor=#E4FDE1;" parent="IKa5RHeawWwGmrkT48Z7-11" vertex="1">
          <mxGeometry x="244" width="49" height="49" as="geometry" />
        </mxCell>
        <mxCell id="IKa5RHeawWwGmrkT48Z7-18" value="." style="shape=partialRectangle;html=1;whiteSpace=wrap;connectable=0;overflow=hidden;fillColor=none;top=0;left=0;bottom=0;right=0;fontSize=50;direction=north;flipH=0;flipV=0;verticalAlign=middle;labelPosition=center;verticalLabelPosition=middle;align=center;horizontal=0;spacingTop=-15;strokeColor=#028090;fontColor=#E4FDE1;" parent="IKa5RHeawWwGmrkT48Z7-11" vertex="1">
          <mxGeometry x="293" width="48" height="49" as="geometry" />
        </mxCell>
        <mxCell id="IKa5RHeawWwGmrkT48Z7-19" value="." style="shape=partialRectangle;html=1;whiteSpace=wrap;connectable=0;overflow=hidden;fillColor=none;top=0;left=0;bottom=0;right=0;fontSize=50;direction=north;flipH=0;flipV=0;verticalAlign=middle;labelPosition=center;verticalLabelPosition=middle;align=center;horizontal=0;spacingTop=-15;strokeColor=#028090;fontColor=#E4FDE1;" parent="IKa5RHeawWwGmrkT48Z7-11" vertex="1">
          <mxGeometry x="341" width="49" height="49" as="geometry" />
        </mxCell>
        <mxCell id="IKa5RHeawWwGmrkT48Z7-20" value="" style="shape=partialRectangle;html=1;whiteSpace=wrap;collapsible=0;dropTarget=0;pointerEvents=0;fillColor=none;top=0;left=0;bottom=0;right=0;points=[[0,0.5],[1,0.5]];portConstraint=eastwest;fontSize=50;direction=north;flipH=0;flipV=0;verticalAlign=middle;labelPosition=center;verticalLabelPosition=middle;align=center;horizontal=0;spacingTop=-15;strokeColor=#028090;fontColor=#E4FDE1;" parent="IKa5RHeawWwGmrkT48Z7-1" vertex="1">
          <mxGeometry y="98" width="390" height="48" as="geometry" />
        </mxCell>
        <mxCell id="IKa5RHeawWwGmrkT48Z7-21" value="." style="shape=partialRectangle;html=1;whiteSpace=wrap;connectable=0;overflow=hidden;fillColor=none;top=0;left=0;bottom=0;right=0;fontSize=50;direction=north;flipH=0;flipV=0;verticalAlign=middle;labelPosition=center;verticalLabelPosition=middle;align=center;horizontal=0;spacingTop=-15;strokeColor=#028090;fontColor=#E4FDE1;" parent="IKa5RHeawWwGmrkT48Z7-20" vertex="1">
          <mxGeometry width="49" height="48" as="geometry" />
        </mxCell>
        <mxCell id="IKa5RHeawWwGmrkT48Z7-22" value="." style="shape=partialRectangle;html=1;whiteSpace=wrap;connectable=0;overflow=hidden;fillColor=none;top=0;left=0;bottom=0;right=0;fontSize=50;direction=north;flipH=0;flipV=0;verticalAlign=middle;labelPosition=center;verticalLabelPosition=middle;align=center;horizontal=0;spacingTop=-15;strokeColor=#028090;fontColor=#E4FDE1;" parent="IKa5RHeawWwGmrkT48Z7-20" vertex="1">
          <mxGeometry x="49" width="49" height="48" as="geometry" />
        </mxCell>
        <mxCell id="IKa5RHeawWwGmrkT48Z7-23" value="." style="shape=partialRectangle;html=1;whiteSpace=wrap;connectable=0;overflow=hidden;fillColor=none;top=0;left=0;bottom=0;right=0;fontSize=50;direction=north;flipH=0;flipV=0;verticalAlign=middle;labelPosition=center;verticalLabelPosition=middle;align=center;horizontal=0;spacingTop=-15;strokeColor=#028090;fontColor=#E4FDE1;" parent="IKa5RHeawWwGmrkT48Z7-20" vertex="1">
          <mxGeometry x="98" width="48" height="48" as="geometry" />
        </mxCell>
        <mxCell id="IKa5RHeawWwGmrkT48Z7-24" value="." style="shape=partialRectangle;html=1;whiteSpace=wrap;connectable=0;overflow=hidden;fillColor=none;top=0;left=0;bottom=0;right=0;fontSize=50;direction=north;flipH=0;flipV=0;verticalAlign=middle;labelPosition=center;verticalLabelPosition=middle;align=center;horizontal=0;spacingTop=-15;strokeColor=#028090;fontColor=#E4FDE1;" parent="IKa5RHeawWwGmrkT48Z7-20" vertex="1">
          <mxGeometry x="146" width="49" height="48" as="geometry" />
        </mxCell>
        <mxCell id="IKa5RHeawWwGmrkT48Z7-25" value="." style="shape=partialRectangle;html=1;whiteSpace=wrap;connectable=0;overflow=hidden;fillColor=none;top=0;left=0;bottom=0;right=0;fontSize=50;direction=north;flipH=0;flipV=0;verticalAlign=middle;labelPosition=center;verticalLabelPosition=middle;align=center;horizontal=0;spacingTop=-15;strokeColor=#028090;fontColor=#E4FDE1;" parent="IKa5RHeawWwGmrkT48Z7-20" vertex="1">
          <mxGeometry x="195" width="49" height="48" as="geometry" />
        </mxCell>
        <mxCell id="IKa5RHeawWwGmrkT48Z7-26" value="." style="shape=partialRectangle;html=1;whiteSpace=wrap;connectable=0;overflow=hidden;fillColor=none;top=0;left=0;bottom=0;right=0;fontSize=50;direction=north;flipH=0;flipV=0;verticalAlign=middle;labelPosition=center;verticalLabelPosition=middle;align=center;horizontal=0;spacingTop=-15;strokeColor=#028090;fontColor=#E4FDE1;" parent="IKa5RHeawWwGmrkT48Z7-20" vertex="1">
          <mxGeometry x="244" width="49" height="48" as="geometry" />
        </mxCell>
        <mxCell id="IKa5RHeawWwGmrkT48Z7-27" value="." style="shape=partialRectangle;html=1;whiteSpace=wrap;connectable=0;overflow=hidden;fillColor=none;top=0;left=0;bottom=0;right=0;fontSize=50;direction=north;flipH=0;flipV=0;verticalAlign=middle;labelPosition=center;verticalLabelPosition=middle;align=center;horizontal=0;spacingTop=-15;strokeColor=#028090;fontColor=#E4FDE1;" parent="IKa5RHeawWwGmrkT48Z7-20" vertex="1">
          <mxGeometry x="293" width="48" height="48" as="geometry" />
        </mxCell>
        <mxCell id="IKa5RHeawWwGmrkT48Z7-28" value="." style="shape=partialRectangle;html=1;whiteSpace=wrap;connectable=0;overflow=hidden;fillColor=none;top=0;left=0;bottom=0;right=0;fontSize=50;direction=north;flipH=0;flipV=0;verticalAlign=middle;labelPosition=center;verticalLabelPosition=middle;align=center;horizontal=0;spacingTop=-15;strokeColor=#028090;fontColor=#E4FDE1;" parent="IKa5RHeawWwGmrkT48Z7-20" vertex="1">
          <mxGeometry x="341" width="49" height="48" as="geometry" />
        </mxCell>
        <mxCell id="IKa5RHeawWwGmrkT48Z7-29" value="" style="shape=partialRectangle;html=1;whiteSpace=wrap;collapsible=0;dropTarget=0;pointerEvents=0;fillColor=none;top=0;left=0;bottom=0;right=0;points=[[0,0.5],[1,0.5]];portConstraint=eastwest;fontSize=50;direction=north;flipH=0;flipV=0;verticalAlign=middle;labelPosition=center;verticalLabelPosition=middle;align=center;horizontal=0;spacingTop=-15;strokeColor=#028090;fontColor=#E4FDE1;" parent="IKa5RHeawWwGmrkT48Z7-1" vertex="1">
          <mxGeometry y="146" width="390" height="49" as="geometry" />
        </mxCell>
        <mxCell id="IKa5RHeawWwGmrkT48Z7-30" value="." style="shape=partialRectangle;html=1;whiteSpace=wrap;connectable=0;overflow=hidden;fillColor=none;top=0;left=0;bottom=0;right=0;fontSize=50;direction=north;flipH=0;flipV=0;verticalAlign=middle;labelPosition=center;verticalLabelPosition=middle;align=center;horizontal=0;spacingTop=-15;strokeColor=#028090;fontColor=#E4FDE1;" parent="IKa5RHeawWwGmrkT48Z7-29" vertex="1">
          <mxGeometry width="49" height="49" as="geometry" />
        </mxCell>
        <mxCell id="IKa5RHeawWwGmrkT48Z7-31" value="." style="shape=partialRectangle;html=1;whiteSpace=wrap;connectable=0;overflow=hidden;fillColor=none;top=0;left=0;bottom=0;right=0;fontSize=50;direction=north;flipH=0;flipV=0;verticalAlign=middle;labelPosition=center;verticalLabelPosition=middle;align=center;horizontal=0;spacingTop=-15;strokeColor=#028090;fontColor=#E4FDE1;" parent="IKa5RHeawWwGmrkT48Z7-29" vertex="1">
          <mxGeometry x="49" width="49" height="49" as="geometry" />
        </mxCell>
        <mxCell id="IKa5RHeawWwGmrkT48Z7-32" value="." style="shape=partialRectangle;html=1;whiteSpace=wrap;connectable=0;overflow=hidden;fillColor=none;top=0;left=0;bottom=0;right=0;fontSize=50;direction=north;flipH=0;flipV=0;verticalAlign=middle;labelPosition=center;verticalLabelPosition=middle;align=center;horizontal=0;spacingTop=-15;strokeColor=#028090;fontColor=#E4FDE1;" parent="IKa5RHeawWwGmrkT48Z7-29" vertex="1">
          <mxGeometry x="98" width="48" height="49" as="geometry" />
        </mxCell>
        <mxCell id="IKa5RHeawWwGmrkT48Z7-33" value="X" style="shape=partialRectangle;html=1;whiteSpace=wrap;connectable=0;overflow=hidden;fillColor=none;top=0;left=0;bottom=0;right=0;fontSize=50;direction=north;flipH=0;flipV=0;verticalAlign=top;labelPosition=center;verticalLabelPosition=middle;align=center;horizontal=1;spacingTop=0;strokeColor=#028090;fontColor=#E4FDE1;" parent="IKa5RHeawWwGmrkT48Z7-29" vertex="1">
          <mxGeometry x="146" width="49" height="49" as="geometry" />
        </mxCell>
        <mxCell id="IKa5RHeawWwGmrkT48Z7-34" value="3" style="shape=partialRectangle;html=1;whiteSpace=wrap;connectable=0;overflow=hidden;fillColor=none;top=0;left=0;bottom=0;right=0;fontSize=50;direction=north;flipH=0;flipV=0;verticalAlign=top;labelPosition=center;verticalLabelPosition=middle;align=center;horizontal=1;spacingTop=0;strokeColor=#028090;fontColor=#E4FDE1;" parent="IKa5RHeawWwGmrkT48Z7-29" vertex="1">
          <mxGeometry x="195" width="49" height="49" as="geometry" />
        </mxCell>
        <mxCell id="IKa5RHeawWwGmrkT48Z7-35" value="3" style="shape=partialRectangle;html=1;whiteSpace=wrap;connectable=0;overflow=hidden;fillColor=none;top=0;left=0;bottom=0;right=0;fontSize=50;direction=north;flipH=0;flipV=0;verticalAlign=top;labelPosition=center;verticalLabelPosition=middle;align=center;horizontal=1;spacingTop=0;strokeColor=#028090;fontColor=#E4FDE1;" parent="IKa5RHeawWwGmrkT48Z7-29" vertex="1">
          <mxGeometry x="244" width="49" height="49" as="geometry" />
        </mxCell>
        <mxCell id="IKa5RHeawWwGmrkT48Z7-36" value="." style="shape=partialRectangle;html=1;whiteSpace=wrap;connectable=0;overflow=hidden;fillColor=none;top=0;left=0;bottom=0;right=0;fontSize=50;direction=north;flipH=0;flipV=0;verticalAlign=middle;labelPosition=center;verticalLabelPosition=middle;align=center;horizontal=0;spacingTop=-15;strokeColor=#028090;fontColor=#E4FDE1;" parent="IKa5RHeawWwGmrkT48Z7-29" vertex="1">
          <mxGeometry x="293" width="48" height="49" as="geometry" />
        </mxCell>
        <mxCell id="IKa5RHeawWwGmrkT48Z7-37" value="." style="shape=partialRectangle;html=1;whiteSpace=wrap;connectable=0;overflow=hidden;fillColor=none;top=0;left=0;bottom=0;right=0;fontSize=50;direction=north;flipH=0;flipV=0;verticalAlign=middle;labelPosition=center;verticalLabelPosition=middle;align=center;horizontal=0;spacingTop=-15;strokeColor=#028090;fontColor=#E4FDE1;" parent="IKa5RHeawWwGmrkT48Z7-29" vertex="1">
          <mxGeometry x="341" width="49" height="49" as="geometry" />
        </mxCell>
        <mxCell id="IKa5RHeawWwGmrkT48Z7-38" value="" style="shape=partialRectangle;html=1;whiteSpace=wrap;collapsible=0;dropTarget=0;pointerEvents=0;fillColor=none;top=0;left=0;bottom=0;right=0;points=[[0,0.5],[1,0.5]];portConstraint=eastwest;fontSize=50;direction=north;flipH=0;flipV=0;verticalAlign=middle;labelPosition=center;verticalLabelPosition=middle;align=center;horizontal=0;spacingTop=-15;strokeColor=#028090;fontColor=#E4FDE1;" parent="IKa5RHeawWwGmrkT48Z7-1" vertex="1">
          <mxGeometry y="195" width="390" height="49" as="geometry" />
        </mxCell>
        <mxCell id="IKa5RHeawWwGmrkT48Z7-39" value="." style="shape=partialRectangle;html=1;whiteSpace=wrap;connectable=0;overflow=hidden;fillColor=none;top=0;left=0;bottom=0;right=0;fontSize=50;direction=north;flipH=0;flipV=0;verticalAlign=middle;labelPosition=center;verticalLabelPosition=middle;align=center;horizontal=0;spacingTop=-15;strokeColor=#028090;fontColor=#E4FDE1;" parent="IKa5RHeawWwGmrkT48Z7-38" vertex="1">
          <mxGeometry width="49" height="49" as="geometry" />
        </mxCell>
        <mxCell id="IKa5RHeawWwGmrkT48Z7-40" value="4" style="shape=partialRectangle;html=1;whiteSpace=wrap;connectable=0;overflow=hidden;fillColor=none;top=0;left=0;bottom=0;right=0;fontSize=50;direction=north;flipH=0;flipV=0;verticalAlign=top;labelPosition=center;verticalLabelPosition=middle;align=center;horizontal=1;spacingTop=0;strokeColor=#028090;fontColor=#E4FDE1;" parent="IKa5RHeawWwGmrkT48Z7-38" vertex="1">
          <mxGeometry x="49" width="49" height="49" as="geometry" />
        </mxCell>
        <mxCell id="IKa5RHeawWwGmrkT48Z7-41" value="." style="shape=partialRectangle;html=1;whiteSpace=wrap;connectable=0;overflow=hidden;fillColor=none;top=0;left=0;bottom=0;right=0;fontSize=50;direction=north;flipH=0;flipV=0;verticalAlign=middle;labelPosition=center;verticalLabelPosition=middle;align=center;horizontal=0;spacingTop=-15;strokeColor=#028090;fontColor=#E4FDE1;" parent="IKa5RHeawWwGmrkT48Z7-38" vertex="1">
          <mxGeometry x="98" width="48" height="49" as="geometry" />
        </mxCell>
        <mxCell id="IKa5RHeawWwGmrkT48Z7-42" value="." style="shape=partialRectangle;html=1;whiteSpace=wrap;connectable=0;overflow=hidden;fillColor=none;top=0;left=0;bottom=0;right=0;fontSize=50;direction=north;flipH=0;flipV=0;verticalAlign=middle;labelPosition=center;verticalLabelPosition=middle;align=center;horizontal=0;spacingTop=-15;strokeColor=#028090;fontColor=#E4FDE1;" parent="IKa5RHeawWwGmrkT48Z7-38" vertex="1">
          <mxGeometry x="146" width="49" height="49" as="geometry" />
        </mxCell>
        <mxCell id="IKa5RHeawWwGmrkT48Z7-43" value="." style="shape=partialRectangle;html=1;whiteSpace=wrap;connectable=0;overflow=hidden;fillColor=none;top=0;left=0;bottom=0;right=0;fontSize=50;direction=north;flipH=0;flipV=0;verticalAlign=middle;labelPosition=center;verticalLabelPosition=middle;align=center;horizontal=0;spacingTop=-15;strokeColor=#028090;fontColor=#E4FDE1;" parent="IKa5RHeawWwGmrkT48Z7-38" vertex="1">
          <mxGeometry x="195" width="49" height="49" as="geometry" />
        </mxCell>
        <mxCell id="IKa5RHeawWwGmrkT48Z7-44" value="." style="shape=partialRectangle;html=1;whiteSpace=wrap;connectable=0;overflow=hidden;fillColor=none;top=0;left=0;bottom=0;right=0;fontSize=50;direction=north;flipH=0;flipV=0;verticalAlign=middle;labelPosition=center;verticalLabelPosition=middle;align=center;horizontal=0;spacingTop=-15;strokeColor=#028090;fontColor=#E4FDE1;" parent="IKa5RHeawWwGmrkT48Z7-38" vertex="1">
          <mxGeometry x="244" width="49" height="49" as="geometry" />
        </mxCell>
        <mxCell id="IKa5RHeawWwGmrkT48Z7-45" value="." style="shape=partialRectangle;html=1;whiteSpace=wrap;connectable=0;overflow=hidden;fillColor=none;top=0;left=0;bottom=0;right=0;fontSize=50;direction=north;flipH=0;flipV=0;verticalAlign=middle;labelPosition=center;verticalLabelPosition=middle;align=center;horizontal=0;spacingTop=-15;strokeColor=#028090;fontColor=#E4FDE1;" parent="IKa5RHeawWwGmrkT48Z7-38" vertex="1">
          <mxGeometry x="293" width="48" height="49" as="geometry" />
        </mxCell>
        <mxCell id="IKa5RHeawWwGmrkT48Z7-46" value="." style="shape=partialRectangle;html=1;whiteSpace=wrap;connectable=0;overflow=hidden;fillColor=none;top=0;left=0;bottom=0;right=0;fontSize=50;direction=north;flipH=0;flipV=0;verticalAlign=middle;labelPosition=center;verticalLabelPosition=middle;align=center;horizontal=0;spacingTop=-15;strokeColor=#028090;fontColor=#E4FDE1;" parent="IKa5RHeawWwGmrkT48Z7-38" vertex="1">
          <mxGeometry x="341" width="49" height="49" as="geometry" />
        </mxCell>
        <mxCell id="IKa5RHeawWwGmrkT48Z7-47" value="" style="shape=partialRectangle;html=1;whiteSpace=wrap;collapsible=0;dropTarget=0;pointerEvents=0;fillColor=none;top=0;left=0;bottom=0;right=0;points=[[0,0.5],[1,0.5]];portConstraint=eastwest;fontSize=50;direction=north;flipH=0;flipV=0;verticalAlign=middle;labelPosition=center;verticalLabelPosition=middle;align=center;horizontal=0;spacingTop=-15;strokeColor=#028090;fontColor=#E4FDE1;" parent="IKa5RHeawWwGmrkT48Z7-1" vertex="1">
          <mxGeometry y="244" width="390" height="49" as="geometry" />
        </mxCell>
        <mxCell id="IKa5RHeawWwGmrkT48Z7-48" value="." style="shape=partialRectangle;html=1;whiteSpace=wrap;connectable=0;overflow=hidden;fillColor=none;top=0;left=0;bottom=0;right=0;fontSize=50;direction=north;flipH=0;flipV=0;verticalAlign=middle;labelPosition=center;verticalLabelPosition=middle;align=center;horizontal=0;spacingTop=-15;strokeColor=#028090;fontColor=#E4FDE1;" parent="IKa5RHeawWwGmrkT48Z7-47" vertex="1">
          <mxGeometry width="49" height="49" as="geometry" />
        </mxCell>
        <mxCell id="IKa5RHeawWwGmrkT48Z7-49" value="4" style="shape=partialRectangle;html=1;whiteSpace=wrap;connectable=0;overflow=hidden;fillColor=none;top=0;left=0;bottom=0;right=0;fontSize=50;direction=north;flipH=0;flipV=0;verticalAlign=top;labelPosition=center;verticalLabelPosition=middle;align=center;horizontal=1;spacingTop=0;strokeColor=#028090;fontColor=#E4FDE1;" parent="IKa5RHeawWwGmrkT48Z7-47" vertex="1">
          <mxGeometry x="49" width="49" height="49" as="geometry" />
        </mxCell>
        <mxCell id="IKa5RHeawWwGmrkT48Z7-50" value="." style="shape=partialRectangle;html=1;whiteSpace=wrap;connectable=0;overflow=hidden;fillColor=none;top=0;left=0;bottom=0;right=0;fontSize=50;direction=north;flipH=0;flipV=0;verticalAlign=middle;labelPosition=center;verticalLabelPosition=middle;align=center;horizontal=0;spacingTop=-15;strokeColor=#028090;fontColor=#E4FDE1;" parent="IKa5RHeawWwGmrkT48Z7-47" vertex="1">
          <mxGeometry x="98" width="48" height="49" as="geometry" />
        </mxCell>
        <mxCell id="IKa5RHeawWwGmrkT48Z7-51" value="." style="shape=partialRectangle;html=1;whiteSpace=wrap;connectable=0;overflow=hidden;fillColor=none;top=0;left=0;bottom=0;right=0;fontSize=50;direction=north;flipH=0;flipV=0;verticalAlign=middle;labelPosition=center;verticalLabelPosition=middle;align=center;horizontal=0;spacingTop=-15;strokeColor=#028090;fontColor=#E4FDE1;" parent="IKa5RHeawWwGmrkT48Z7-47" vertex="1">
          <mxGeometry x="146" width="49" height="49" as="geometry" />
        </mxCell>
        <mxCell id="IKa5RHeawWwGmrkT48Z7-52" value="." style="shape=partialRectangle;html=1;whiteSpace=wrap;connectable=0;overflow=hidden;fillColor=none;top=0;left=0;bottom=0;right=0;fontSize=50;direction=north;flipH=0;flipV=0;verticalAlign=middle;labelPosition=center;verticalLabelPosition=middle;align=center;horizontal=0;spacingTop=-15;strokeColor=#028090;fontColor=#E4FDE1;" parent="IKa5RHeawWwGmrkT48Z7-47" vertex="1">
          <mxGeometry x="195" width="49" height="49" as="geometry" />
        </mxCell>
        <mxCell id="IKa5RHeawWwGmrkT48Z7-53" value="." style="shape=partialRectangle;html=1;whiteSpace=wrap;connectable=0;overflow=hidden;fillColor=none;top=0;left=0;bottom=0;right=0;fontSize=50;direction=north;flipH=0;flipV=0;verticalAlign=middle;labelPosition=center;verticalLabelPosition=middle;align=center;horizontal=0;spacingTop=-15;strokeColor=#028090;fontColor=#E4FDE1;" parent="IKa5RHeawWwGmrkT48Z7-47" vertex="1">
          <mxGeometry x="244" width="49" height="49" as="geometry" />
        </mxCell>
        <mxCell id="IKa5RHeawWwGmrkT48Z7-54" value="." style="shape=partialRectangle;html=1;whiteSpace=wrap;connectable=0;overflow=hidden;fillColor=none;top=0;left=0;bottom=0;right=0;fontSize=50;direction=north;flipH=0;flipV=0;verticalAlign=middle;labelPosition=center;verticalLabelPosition=middle;align=center;horizontal=0;spacingTop=-15;strokeColor=#028090;fontColor=#E4FDE1;" parent="IKa5RHeawWwGmrkT48Z7-47" vertex="1">
          <mxGeometry x="293" width="48" height="49" as="geometry" />
        </mxCell>
        <mxCell id="IKa5RHeawWwGmrkT48Z7-55" value="." style="shape=partialRectangle;html=1;whiteSpace=wrap;connectable=0;overflow=hidden;fillColor=none;top=0;left=0;bottom=0;right=0;fontSize=50;direction=north;flipH=0;flipV=0;verticalAlign=middle;labelPosition=center;verticalLabelPosition=middle;align=center;horizontal=0;spacingTop=-15;strokeColor=#028090;fontColor=#E4FDE1;" parent="IKa5RHeawWwGmrkT48Z7-47" vertex="1">
          <mxGeometry x="341" width="49" height="49" as="geometry" />
        </mxCell>
        <mxCell id="IKa5RHeawWwGmrkT48Z7-56" value="" style="shape=partialRectangle;html=1;whiteSpace=wrap;collapsible=0;dropTarget=0;pointerEvents=0;fillColor=none;top=0;left=0;bottom=0;right=0;points=[[0,0.5],[1,0.5]];portConstraint=eastwest;fontSize=50;direction=north;flipH=0;flipV=0;verticalAlign=middle;labelPosition=center;verticalLabelPosition=middle;align=center;horizontal=0;spacingTop=-15;strokeColor=#028090;fontColor=#E4FDE1;" parent="IKa5RHeawWwGmrkT48Z7-1" vertex="1">
          <mxGeometry y="293" width="390" height="48" as="geometry" />
        </mxCell>
        <mxCell id="IKa5RHeawWwGmrkT48Z7-57" value="." style="shape=partialRectangle;html=1;whiteSpace=wrap;connectable=0;overflow=hidden;fillColor=none;top=0;left=0;bottom=0;right=0;fontSize=50;direction=north;flipH=0;flipV=0;verticalAlign=middle;labelPosition=center;verticalLabelPosition=middle;align=center;horizontal=0;spacingTop=-15;strokeColor=#028090;fontColor=#E4FDE1;" parent="IKa5RHeawWwGmrkT48Z7-56" vertex="1">
          <mxGeometry width="49" height="48" as="geometry" />
        </mxCell>
        <mxCell id="IKa5RHeawWwGmrkT48Z7-58" value="4" style="shape=partialRectangle;html=1;whiteSpace=wrap;connectable=0;overflow=hidden;fillColor=none;top=0;left=0;bottom=0;right=0;fontSize=50;direction=north;flipH=0;flipV=0;verticalAlign=top;labelPosition=center;verticalLabelPosition=middle;align=center;horizontal=1;spacingTop=0;strokeColor=#028090;fontColor=#E4FDE1;" parent="IKa5RHeawWwGmrkT48Z7-56" vertex="1">
          <mxGeometry x="49" width="49" height="48" as="geometry" />
        </mxCell>
        <mxCell id="IKa5RHeawWwGmrkT48Z7-59" value="." style="shape=partialRectangle;html=1;whiteSpace=wrap;connectable=0;overflow=hidden;fillColor=none;top=0;left=0;bottom=0;right=0;fontSize=50;direction=north;flipH=0;flipV=0;verticalAlign=middle;labelPosition=center;verticalLabelPosition=middle;align=center;horizontal=0;spacingTop=-15;strokeColor=#028090;fontColor=#E4FDE1;" parent="IKa5RHeawWwGmrkT48Z7-56" vertex="1">
          <mxGeometry x="98" width="48" height="48" as="geometry" />
        </mxCell>
        <mxCell id="IKa5RHeawWwGmrkT48Z7-60" value="5" style="shape=partialRectangle;html=1;whiteSpace=wrap;connectable=0;overflow=hidden;fillColor=none;top=0;left=0;bottom=0;right=0;fontSize=50;direction=north;flipH=0;flipV=0;verticalAlign=top;labelPosition=center;verticalLabelPosition=middle;align=center;horizontal=1;spacingTop=0;strokeColor=#028090;fontColor=#E4FDE1;" parent="IKa5RHeawWwGmrkT48Z7-56" vertex="1">
          <mxGeometry x="146" width="49" height="48" as="geometry" />
        </mxCell>
        <mxCell id="IKa5RHeawWwGmrkT48Z7-61" value="5" style="shape=partialRectangle;html=1;whiteSpace=wrap;connectable=0;overflow=hidden;fillColor=none;top=0;left=0;bottom=0;right=0;fontSize=50;direction=north;flipH=0;flipV=0;verticalAlign=top;labelPosition=center;verticalLabelPosition=middle;align=center;horizontal=1;spacingTop=0;strokeColor=#028090;fontColor=#E4FDE1;" parent="IKa5RHeawWwGmrkT48Z7-56" vertex="1">
          <mxGeometry x="195" width="49" height="48" as="geometry" />
        </mxCell>
        <mxCell id="IKa5RHeawWwGmrkT48Z7-62" value="5" style="shape=partialRectangle;html=1;whiteSpace=wrap;connectable=0;overflow=hidden;fillColor=none;top=0;left=0;bottom=0;right=0;fontSize=50;direction=north;flipH=0;flipV=0;verticalAlign=top;labelPosition=center;verticalLabelPosition=middle;align=center;horizontal=1;spacingTop=0;strokeColor=#028090;fontColor=#E4FDE1;" parent="IKa5RHeawWwGmrkT48Z7-56" vertex="1">
          <mxGeometry x="244" width="49" height="48" as="geometry" />
        </mxCell>
        <mxCell id="IKa5RHeawWwGmrkT48Z7-63" value="5" style="shape=partialRectangle;html=1;whiteSpace=wrap;connectable=0;overflow=hidden;fillColor=none;top=0;left=0;bottom=0;right=0;fontSize=50;direction=north;flipH=0;flipV=0;verticalAlign=top;labelPosition=center;verticalLabelPosition=middle;align=center;horizontal=1;spacingTop=0;strokeColor=#028090;fontColor=#E4FDE1;" parent="IKa5RHeawWwGmrkT48Z7-56" vertex="1">
          <mxGeometry x="293" width="48" height="48" as="geometry" />
        </mxCell>
        <mxCell id="IKa5RHeawWwGmrkT48Z7-64" value="5" style="shape=partialRectangle;html=1;whiteSpace=wrap;connectable=0;overflow=hidden;fillColor=none;top=0;left=0;bottom=0;right=0;fontSize=50;direction=north;flipH=0;flipV=0;verticalAlign=top;labelPosition=center;verticalLabelPosition=middle;align=center;horizontal=1;spacingTop=0;strokeColor=#028090;fontColor=#E4FDE1;" parent="IKa5RHeawWwGmrkT48Z7-56" vertex="1">
          <mxGeometry x="341" width="49" height="48" as="geometry" />
        </mxCell>
        <mxCell id="IKa5RHeawWwGmrkT48Z7-65" value="" style="shape=partialRectangle;html=1;whiteSpace=wrap;collapsible=0;dropTarget=0;pointerEvents=0;fillColor=none;top=0;left=0;bottom=0;right=0;points=[[0,0.5],[1,0.5]];portConstraint=eastwest;fontSize=50;direction=north;flipH=0;flipV=0;verticalAlign=middle;labelPosition=center;verticalLabelPosition=middle;align=center;horizontal=0;spacingTop=-15;strokeColor=#028090;fontColor=#E4FDE1;" parent="IKa5RHeawWwGmrkT48Z7-1" vertex="1">
          <mxGeometry y="341" width="390" height="49" as="geometry" />
        </mxCell>
        <mxCell id="IKa5RHeawWwGmrkT48Z7-66" value="." style="shape=partialRectangle;html=1;whiteSpace=wrap;connectable=0;overflow=hidden;fillColor=none;top=0;left=0;bottom=0;right=0;fontSize=50;direction=north;flipH=0;flipV=0;verticalAlign=middle;labelPosition=center;verticalLabelPosition=middle;align=center;horizontal=0;spacingTop=-15;strokeColor=#028090;fontColor=#E4FDE1;" parent="IKa5RHeawWwGmrkT48Z7-65" vertex="1">
          <mxGeometry width="49" height="49" as="geometry" />
        </mxCell>
        <mxCell id="IKa5RHeawWwGmrkT48Z7-67" value="4" style="shape=partialRectangle;html=1;whiteSpace=wrap;connectable=0;overflow=hidden;fillColor=none;top=0;left=0;bottom=0;right=0;fontSize=50;direction=north;flipH=0;flipV=0;verticalAlign=top;labelPosition=center;verticalLabelPosition=middle;align=center;horizontal=1;spacingTop=0;strokeColor=#028090;fontColor=#E4FDE1;" parent="IKa5RHeawWwGmrkT48Z7-65" vertex="1">
          <mxGeometry x="49" width="49" height="49" as="geometry" />
        </mxCell>
        <mxCell id="IKa5RHeawWwGmrkT48Z7-68" value="." style="shape=partialRectangle;html=1;whiteSpace=wrap;connectable=0;overflow=hidden;fillColor=none;top=0;left=0;bottom=0;right=0;fontSize=50;direction=north;flipH=0;flipV=0;verticalAlign=middle;labelPosition=center;verticalLabelPosition=middle;align=center;horizontal=0;spacingTop=-15;strokeColor=#028090;fontColor=#E4FDE1;" parent="IKa5RHeawWwGmrkT48Z7-65" vertex="1">
          <mxGeometry x="98" width="48" height="49" as="geometry" />
        </mxCell>
        <mxCell id="IKa5RHeawWwGmrkT48Z7-69" value="." style="shape=partialRectangle;html=1;whiteSpace=wrap;connectable=0;overflow=hidden;fillColor=none;top=0;left=0;bottom=0;right=0;fontSize=50;direction=north;flipH=0;flipV=0;verticalAlign=middle;labelPosition=center;verticalLabelPosition=middle;align=center;horizontal=0;spacingTop=-15;strokeColor=#028090;fontColor=#E4FDE1;" parent="IKa5RHeawWwGmrkT48Z7-65" vertex="1">
          <mxGeometry x="146" width="49" height="49" as="geometry" />
        </mxCell>
        <mxCell id="IKa5RHeawWwGmrkT48Z7-70" value="." style="shape=partialRectangle;html=1;whiteSpace=wrap;connectable=0;overflow=hidden;fillColor=none;top=0;left=0;bottom=0;right=0;fontSize=50;direction=north;flipH=0;flipV=0;verticalAlign=middle;labelPosition=center;verticalLabelPosition=middle;align=center;horizontal=0;spacingTop=-15;strokeColor=#028090;fontColor=#E4FDE1;" parent="IKa5RHeawWwGmrkT48Z7-65" vertex="1">
          <mxGeometry x="195" width="49" height="49" as="geometry" />
        </mxCell>
        <mxCell id="IKa5RHeawWwGmrkT48Z7-71" value="." style="shape=partialRectangle;html=1;whiteSpace=wrap;connectable=0;overflow=hidden;fillColor=none;top=0;left=0;bottom=0;right=0;fontSize=50;direction=north;flipH=0;flipV=0;verticalAlign=middle;labelPosition=center;verticalLabelPosition=middle;align=center;horizontal=0;spacingTop=-15;strokeColor=#028090;fontColor=#E4FDE1;" parent="IKa5RHeawWwGmrkT48Z7-65" vertex="1">
          <mxGeometry x="244" width="49" height="49" as="geometry" />
        </mxCell>
        <mxCell id="IKa5RHeawWwGmrkT48Z7-72" value="." style="shape=partialRectangle;html=1;whiteSpace=wrap;connectable=0;overflow=hidden;fillColor=none;top=0;left=0;bottom=0;right=0;fontSize=50;direction=north;flipH=0;flipV=0;verticalAlign=middle;labelPosition=center;verticalLabelPosition=middle;align=center;horizontal=0;spacingTop=-15;strokeColor=#028090;fontColor=#E4FDE1;" parent="IKa5RHeawWwGmrkT48Z7-65" vertex="1">
          <mxGeometry x="293" width="48" height="49" as="geometry" />
        </mxCell>
        <mxCell id="IKa5RHeawWwGmrkT48Z7-73" value="." style="shape=partialRectangle;html=1;whiteSpace=wrap;connectable=0;overflow=hidden;fillColor=none;top=0;left=0;bottom=0;right=0;fontSize=50;direction=north;flipH=0;flipV=0;verticalAlign=middle;labelPosition=center;verticalLabelPosition=middle;align=center;horizontal=0;spacingTop=-15;strokeColor=#028090;fontColor=#E4FDE1;" parent="IKa5RHeawWwGmrkT48Z7-65" vertex="1">
          <mxGeometry x="341" width="49" height="49" as="geometry" />
        </mxCell>
        <mxCell id="qB2Rg0o0fhjjosjWZkIm-17" value="" style="shape=table;html=1;whiteSpace=wrap;startSize=0;container=1;collapsible=0;childLayout=tableLayout;perimeter=rectanglePerimeter;swimlaneFillColor=none;rounded=1;shadow=1;sketch=0;opacity=80;fontSize=50;direction=north;flipH=0;flipV=0;verticalAlign=middle;labelPosition=center;verticalLabelPosition=middle;align=center;horizontal=0;spacingTop=-15;fillColor=#F45B69;fontColor=#E4FDE1;strokeColor=none;" parent="1" vertex="1">
          <mxGeometry x="-820" y="20" width="390" height="390" as="geometry" />
        </mxCell>
        <mxCell id="qB2Rg0o0fhjjosjWZkIm-18" value="" style="shape=partialRectangle;html=1;whiteSpace=wrap;collapsible=0;dropTarget=0;pointerEvents=0;fillColor=none;top=0;left=0;bottom=0;right=0;points=[[0,0.5],[1,0.5]];portConstraint=eastwest;fontSize=50;direction=north;flipH=0;flipV=0;verticalAlign=middle;labelPosition=center;verticalLabelPosition=middle;align=center;horizontal=0;spacingTop=-15;strokeColor=#028090;fontColor=#E4FDE1;" parent="qB2Rg0o0fhjjosjWZkIm-17" vertex="1">
          <mxGeometry width="390" height="49" as="geometry" />
        </mxCell>
        <mxCell id="qB2Rg0o0fhjjosjWZkIm-19" value="." style="shape=partialRectangle;html=1;whiteSpace=wrap;connectable=0;overflow=hidden;fillColor=none;top=0;left=0;bottom=0;right=0;fontSize=50;direction=north;flipH=0;flipV=0;verticalAlign=middle;labelPosition=center;verticalLabelPosition=middle;align=center;horizontal=0;spacingTop=-15;strokeColor=#028090;fontColor=#E4FDE1;" parent="qB2Rg0o0fhjjosjWZkIm-18" vertex="1">
          <mxGeometry width="49" height="49" as="geometry" />
        </mxCell>
        <mxCell id="qB2Rg0o0fhjjosjWZkIm-20" value="." style="shape=partialRectangle;html=1;whiteSpace=wrap;connectable=0;overflow=hidden;fillColor=none;top=0;left=0;bottom=0;right=0;fontSize=50;direction=north;flipH=0;flipV=0;verticalAlign=middle;labelPosition=center;verticalLabelPosition=middle;align=center;horizontal=0;spacingTop=-15;strokeColor=#028090;fontColor=#E4FDE1;" parent="qB2Rg0o0fhjjosjWZkIm-18" vertex="1">
          <mxGeometry x="49" width="49" height="49" as="geometry" />
        </mxCell>
        <mxCell id="qB2Rg0o0fhjjosjWZkIm-21" value="2" style="shape=partialRectangle;html=1;whiteSpace=wrap;connectable=0;overflow=hidden;fillColor=none;top=0;left=0;bottom=0;right=0;fontSize=50;direction=north;flipH=0;flipV=0;verticalAlign=top;labelPosition=center;verticalLabelPosition=middle;align=center;horizontal=1;spacingTop=0;strokeColor=#028090;fontColor=#E4FDE1;" parent="qB2Rg0o0fhjjosjWZkIm-18" vertex="1">
          <mxGeometry x="98" width="48" height="49" as="geometry" />
        </mxCell>
        <mxCell id="qB2Rg0o0fhjjosjWZkIm-22" value="." style="shape=partialRectangle;html=1;whiteSpace=wrap;connectable=0;overflow=hidden;fillColor=none;top=0;left=0;bottom=0;right=0;fontSize=50;direction=north;flipH=0;flipV=0;verticalAlign=middle;labelPosition=center;verticalLabelPosition=middle;align=center;horizontal=0;spacingTop=-15;strokeColor=#028090;fontColor=#E4FDE1;" parent="qB2Rg0o0fhjjosjWZkIm-18" vertex="1">
          <mxGeometry x="146" width="49" height="49" as="geometry" />
        </mxCell>
        <mxCell id="qB2Rg0o0fhjjosjWZkIm-23" value="." style="shape=partialRectangle;html=1;whiteSpace=wrap;connectable=0;overflow=hidden;fillColor=none;top=0;left=0;bottom=0;right=0;fontSize=50;direction=north;flipH=0;flipV=0;verticalAlign=middle;labelPosition=center;verticalLabelPosition=middle;align=center;horizontal=0;spacingTop=-15;strokeColor=#028090;fontColor=#E4FDE1;" parent="qB2Rg0o0fhjjosjWZkIm-18" vertex="1">
          <mxGeometry x="195" width="49" height="49" as="geometry" />
        </mxCell>
        <mxCell id="qB2Rg0o0fhjjosjWZkIm-24" value="." style="shape=partialRectangle;html=1;whiteSpace=wrap;connectable=0;overflow=hidden;fillColor=none;top=0;left=0;bottom=0;right=0;fontSize=50;direction=north;flipH=0;flipV=0;verticalAlign=middle;labelPosition=center;verticalLabelPosition=middle;align=center;horizontal=0;spacingTop=-15;strokeColor=#028090;fontColor=#E4FDE1;" parent="qB2Rg0o0fhjjosjWZkIm-18" vertex="1">
          <mxGeometry x="244" width="49" height="49" as="geometry" />
        </mxCell>
        <mxCell id="qB2Rg0o0fhjjosjWZkIm-25" value="." style="shape=partialRectangle;html=1;whiteSpace=wrap;connectable=0;overflow=hidden;fillColor=none;top=0;left=0;bottom=0;right=0;fontSize=50;direction=north;flipH=0;flipV=0;verticalAlign=middle;labelPosition=center;verticalLabelPosition=middle;align=center;horizontal=0;spacingTop=-15;strokeColor=#028090;fontColor=#E4FDE1;" parent="qB2Rg0o0fhjjosjWZkIm-18" vertex="1">
          <mxGeometry x="293" width="48" height="49" as="geometry" />
        </mxCell>
        <mxCell id="qB2Rg0o0fhjjosjWZkIm-26" value="." style="shape=partialRectangle;html=1;whiteSpace=wrap;connectable=0;overflow=hidden;fillColor=none;top=0;left=0;bottom=0;right=0;fontSize=50;direction=north;flipH=0;flipV=0;verticalAlign=middle;labelPosition=center;verticalLabelPosition=middle;align=center;horizontal=0;spacingTop=-15;strokeColor=#028090;fontColor=#E4FDE1;" parent="qB2Rg0o0fhjjosjWZkIm-18" vertex="1">
          <mxGeometry x="341" width="49" height="49" as="geometry" />
        </mxCell>
        <mxCell id="qB2Rg0o0fhjjosjWZkIm-27" value="" style="shape=partialRectangle;html=1;whiteSpace=wrap;collapsible=0;dropTarget=0;pointerEvents=0;fillColor=none;top=0;left=0;bottom=0;right=0;points=[[0,0.5],[1,0.5]];portConstraint=eastwest;fontSize=50;direction=north;flipH=0;flipV=0;verticalAlign=middle;labelPosition=center;verticalLabelPosition=middle;align=center;horizontal=0;spacingTop=-15;strokeColor=#028090;fontColor=#E4FDE1;" parent="qB2Rg0o0fhjjosjWZkIm-17" vertex="1">
          <mxGeometry y="49" width="390" height="49" as="geometry" />
        </mxCell>
        <mxCell id="qB2Rg0o0fhjjosjWZkIm-28" value="." style="shape=partialRectangle;html=1;whiteSpace=wrap;connectable=0;overflow=hidden;fillColor=none;top=0;left=0;bottom=0;right=0;fontSize=50;direction=north;flipH=0;flipV=0;verticalAlign=middle;labelPosition=center;verticalLabelPosition=middle;align=center;horizontal=0;spacingTop=-15;strokeColor=#028090;fontColor=#E4FDE1;" parent="qB2Rg0o0fhjjosjWZkIm-27" vertex="1">
          <mxGeometry width="49" height="49" as="geometry" />
        </mxCell>
        <mxCell id="qB2Rg0o0fhjjosjWZkIm-29" value="." style="shape=partialRectangle;html=1;whiteSpace=wrap;connectable=0;overflow=hidden;fillColor=none;top=0;left=0;bottom=0;right=0;fontSize=50;direction=north;flipH=0;flipV=0;verticalAlign=middle;labelPosition=center;verticalLabelPosition=middle;align=center;horizontal=0;spacingTop=-15;strokeColor=#028090;fontColor=#E4FDE1;" parent="qB2Rg0o0fhjjosjWZkIm-27" vertex="1">
          <mxGeometry x="49" width="49" height="49" as="geometry" />
        </mxCell>
        <mxCell id="qB2Rg0o0fhjjosjWZkIm-30" value="2" style="shape=partialRectangle;html=1;whiteSpace=wrap;connectable=0;overflow=hidden;fillColor=none;top=0;left=0;bottom=0;right=0;fontSize=50;direction=north;flipH=0;flipV=0;verticalAlign=top;labelPosition=center;verticalLabelPosition=middle;align=center;horizontal=1;spacingTop=0;strokeColor=#028090;fontColor=#E4FDE1;" parent="qB2Rg0o0fhjjosjWZkIm-27" vertex="1">
          <mxGeometry x="98" width="48" height="49" as="geometry" />
        </mxCell>
        <mxCell id="qB2Rg0o0fhjjosjWZkIm-31" value="." style="shape=partialRectangle;html=1;whiteSpace=wrap;connectable=0;overflow=hidden;fillColor=none;top=0;left=0;bottom=0;right=0;fontSize=50;direction=north;flipH=0;flipV=0;verticalAlign=middle;labelPosition=center;verticalLabelPosition=middle;align=center;horizontal=0;spacingTop=-15;strokeColor=#028090;fontColor=#E4FDE1;" parent="qB2Rg0o0fhjjosjWZkIm-27" vertex="1">
          <mxGeometry x="146" width="49" height="49" as="geometry" />
        </mxCell>
        <mxCell id="qB2Rg0o0fhjjosjWZkIm-32" value="." style="shape=partialRectangle;html=1;whiteSpace=wrap;connectable=0;overflow=hidden;fillColor=none;top=0;left=0;bottom=0;right=0;fontSize=50;direction=north;flipH=0;flipV=0;verticalAlign=middle;labelPosition=center;verticalLabelPosition=middle;align=center;horizontal=0;spacingTop=-15;strokeColor=#028090;fontColor=#E4FDE1;" parent="qB2Rg0o0fhjjosjWZkIm-27" vertex="1">
          <mxGeometry x="195" width="49" height="49" as="geometry" />
        </mxCell>
        <mxCell id="qB2Rg0o0fhjjosjWZkIm-33" value="." style="shape=partialRectangle;html=1;whiteSpace=wrap;connectable=0;overflow=hidden;fillColor=none;top=0;left=0;bottom=0;right=0;fontSize=50;direction=north;flipH=0;flipV=0;verticalAlign=middle;labelPosition=center;verticalLabelPosition=middle;align=center;horizontal=0;spacingTop=-15;strokeColor=#028090;fontColor=#E4FDE1;" parent="qB2Rg0o0fhjjosjWZkIm-27" vertex="1">
          <mxGeometry x="244" width="49" height="49" as="geometry" />
        </mxCell>
        <mxCell id="qB2Rg0o0fhjjosjWZkIm-34" value="." style="shape=partialRectangle;html=1;whiteSpace=wrap;connectable=0;overflow=hidden;fillColor=none;top=0;left=0;bottom=0;right=0;fontSize=50;direction=north;flipH=0;flipV=0;verticalAlign=middle;labelPosition=center;verticalLabelPosition=middle;align=center;horizontal=0;spacingTop=-15;strokeColor=#028090;fontColor=#E4FDE1;" parent="qB2Rg0o0fhjjosjWZkIm-27" vertex="1">
          <mxGeometry x="293" width="48" height="49" as="geometry" />
        </mxCell>
        <mxCell id="qB2Rg0o0fhjjosjWZkIm-35" value="." style="shape=partialRectangle;html=1;whiteSpace=wrap;connectable=0;overflow=hidden;fillColor=none;top=0;left=0;bottom=0;right=0;fontSize=50;direction=north;flipH=0;flipV=0;verticalAlign=middle;labelPosition=center;verticalLabelPosition=middle;align=center;horizontal=0;spacingTop=-15;strokeColor=#028090;fontColor=#E4FDE1;" parent="qB2Rg0o0fhjjosjWZkIm-27" vertex="1">
          <mxGeometry x="341" width="49" height="49" as="geometry" />
        </mxCell>
        <mxCell id="qB2Rg0o0fhjjosjWZkIm-36" value="" style="shape=partialRectangle;html=1;whiteSpace=wrap;collapsible=0;dropTarget=0;pointerEvents=0;fillColor=none;top=0;left=0;bottom=0;right=0;points=[[0,0.5],[1,0.5]];portConstraint=eastwest;fontSize=50;direction=north;flipH=0;flipV=0;verticalAlign=middle;labelPosition=center;verticalLabelPosition=middle;align=center;horizontal=0;spacingTop=-15;strokeColor=#028090;fontColor=#E4FDE1;" parent="qB2Rg0o0fhjjosjWZkIm-17" vertex="1">
          <mxGeometry y="98" width="390" height="48" as="geometry" />
        </mxCell>
        <mxCell id="qB2Rg0o0fhjjosjWZkIm-37" value="." style="shape=partialRectangle;html=1;whiteSpace=wrap;connectable=0;overflow=hidden;fillColor=none;top=0;left=0;bottom=0;right=0;fontSize=50;direction=north;flipH=0;flipV=0;verticalAlign=middle;labelPosition=center;verticalLabelPosition=middle;align=center;horizontal=0;spacingTop=-15;strokeColor=#028090;fontColor=#E4FDE1;" parent="qB2Rg0o0fhjjosjWZkIm-36" vertex="1">
          <mxGeometry width="49" height="48" as="geometry" />
        </mxCell>
        <mxCell id="qB2Rg0o0fhjjosjWZkIm-38" value="." style="shape=partialRectangle;html=1;whiteSpace=wrap;connectable=0;overflow=hidden;fillColor=none;top=0;left=0;bottom=0;right=0;fontSize=50;direction=north;flipH=0;flipV=0;verticalAlign=middle;labelPosition=center;verticalLabelPosition=middle;align=center;horizontal=0;spacingTop=-15;strokeColor=#028090;fontColor=#E4FDE1;" parent="qB2Rg0o0fhjjosjWZkIm-36" vertex="1">
          <mxGeometry x="49" width="49" height="48" as="geometry" />
        </mxCell>
        <mxCell id="qB2Rg0o0fhjjosjWZkIm-39" value="." style="shape=partialRectangle;html=1;whiteSpace=wrap;connectable=0;overflow=hidden;fillColor=none;top=0;left=0;bottom=0;right=0;fontSize=50;direction=north;flipH=0;flipV=0;verticalAlign=middle;labelPosition=center;verticalLabelPosition=middle;align=center;horizontal=0;spacingTop=-15;strokeColor=#028090;fontColor=#E4FDE1;" parent="qB2Rg0o0fhjjosjWZkIm-36" vertex="1">
          <mxGeometry x="98" width="48" height="48" as="geometry" />
        </mxCell>
        <mxCell id="qB2Rg0o0fhjjosjWZkIm-40" value="." style="shape=partialRectangle;html=1;whiteSpace=wrap;connectable=0;overflow=hidden;fillColor=none;top=0;left=0;bottom=0;right=0;fontSize=50;direction=north;flipH=0;flipV=0;verticalAlign=middle;labelPosition=center;verticalLabelPosition=middle;align=center;horizontal=0;spacingTop=-15;strokeColor=#028090;fontColor=#E4FDE1;" parent="qB2Rg0o0fhjjosjWZkIm-36" vertex="1">
          <mxGeometry x="146" width="49" height="48" as="geometry" />
        </mxCell>
        <mxCell id="qB2Rg0o0fhjjosjWZkIm-41" value="." style="shape=partialRectangle;html=1;whiteSpace=wrap;connectable=0;overflow=hidden;fillColor=none;top=0;left=0;bottom=0;right=0;fontSize=50;direction=north;flipH=0;flipV=0;verticalAlign=middle;labelPosition=center;verticalLabelPosition=middle;align=center;horizontal=0;spacingTop=-15;strokeColor=#028090;fontColor=#E4FDE1;" parent="qB2Rg0o0fhjjosjWZkIm-36" vertex="1">
          <mxGeometry x="195" width="49" height="48" as="geometry" />
        </mxCell>
        <mxCell id="qB2Rg0o0fhjjosjWZkIm-42" value="." style="shape=partialRectangle;html=1;whiteSpace=wrap;connectable=0;overflow=hidden;fillColor=none;top=0;left=0;bottom=0;right=0;fontSize=50;direction=north;flipH=0;flipV=0;verticalAlign=middle;labelPosition=center;verticalLabelPosition=middle;align=center;horizontal=0;spacingTop=-15;strokeColor=#028090;fontColor=#E4FDE1;" parent="qB2Rg0o0fhjjosjWZkIm-36" vertex="1">
          <mxGeometry x="244" width="49" height="48" as="geometry" />
        </mxCell>
        <mxCell id="qB2Rg0o0fhjjosjWZkIm-43" value="." style="shape=partialRectangle;html=1;whiteSpace=wrap;connectable=0;overflow=hidden;fillColor=none;top=0;left=0;bottom=0;right=0;fontSize=50;direction=north;flipH=0;flipV=0;verticalAlign=middle;labelPosition=center;verticalLabelPosition=middle;align=center;horizontal=0;spacingTop=-15;strokeColor=#028090;fontColor=#E4FDE1;" parent="qB2Rg0o0fhjjosjWZkIm-36" vertex="1">
          <mxGeometry x="293" width="48" height="48" as="geometry" />
        </mxCell>
        <mxCell id="qB2Rg0o0fhjjosjWZkIm-44" value="." style="shape=partialRectangle;html=1;whiteSpace=wrap;connectable=0;overflow=hidden;fillColor=none;top=0;left=0;bottom=0;right=0;fontSize=50;direction=north;flipH=0;flipV=0;verticalAlign=middle;labelPosition=center;verticalLabelPosition=middle;align=center;horizontal=0;spacingTop=-15;strokeColor=#028090;fontColor=#E4FDE1;" parent="qB2Rg0o0fhjjosjWZkIm-36" vertex="1">
          <mxGeometry x="341" width="49" height="48" as="geometry" />
        </mxCell>
        <mxCell id="qB2Rg0o0fhjjosjWZkIm-45" value="" style="shape=partialRectangle;html=1;whiteSpace=wrap;collapsible=0;dropTarget=0;pointerEvents=0;fillColor=none;top=0;left=0;bottom=0;right=0;points=[[0,0.5],[1,0.5]];portConstraint=eastwest;fontSize=50;direction=north;flipH=0;flipV=0;verticalAlign=middle;labelPosition=center;verticalLabelPosition=middle;align=center;horizontal=0;spacingTop=-15;strokeColor=#028090;fontColor=#E4FDE1;" parent="qB2Rg0o0fhjjosjWZkIm-17" vertex="1">
          <mxGeometry y="146" width="390" height="49" as="geometry" />
        </mxCell>
        <mxCell id="qB2Rg0o0fhjjosjWZkIm-46" value="." style="shape=partialRectangle;html=1;whiteSpace=wrap;connectable=0;overflow=hidden;fillColor=none;top=0;left=0;bottom=0;right=0;fontSize=50;direction=north;flipH=0;flipV=0;verticalAlign=middle;labelPosition=center;verticalLabelPosition=middle;align=center;horizontal=0;spacingTop=-15;strokeColor=#028090;fontColor=#E4FDE1;" parent="qB2Rg0o0fhjjosjWZkIm-45" vertex="1">
          <mxGeometry width="49" height="49" as="geometry" />
        </mxCell>
        <mxCell id="qB2Rg0o0fhjjosjWZkIm-47" value="." style="shape=partialRectangle;html=1;whiteSpace=wrap;connectable=0;overflow=hidden;fillColor=none;top=0;left=0;bottom=0;right=0;fontSize=50;direction=north;flipH=0;flipV=0;verticalAlign=middle;labelPosition=center;verticalLabelPosition=middle;align=center;horizontal=0;spacingTop=-15;strokeColor=#028090;fontColor=#E4FDE1;" parent="qB2Rg0o0fhjjosjWZkIm-45" vertex="1">
          <mxGeometry x="49" width="49" height="49" as="geometry" />
        </mxCell>
        <mxCell id="qB2Rg0o0fhjjosjWZkIm-48" value="." style="shape=partialRectangle;html=1;whiteSpace=wrap;connectable=0;overflow=hidden;fillColor=none;top=0;left=0;bottom=0;right=0;fontSize=50;direction=north;flipH=0;flipV=0;verticalAlign=middle;labelPosition=center;verticalLabelPosition=middle;align=center;horizontal=0;spacingTop=-15;strokeColor=#028090;fontColor=#E4FDE1;" parent="qB2Rg0o0fhjjosjWZkIm-45" vertex="1">
          <mxGeometry x="98" width="48" height="49" as="geometry" />
        </mxCell>
        <mxCell id="qB2Rg0o0fhjjosjWZkIm-49" value="3" style="shape=partialRectangle;html=1;whiteSpace=wrap;connectable=0;overflow=hidden;fillColor=none;top=0;left=0;bottom=0;right=0;fontSize=50;direction=north;flipH=0;flipV=0;verticalAlign=top;labelPosition=center;verticalLabelPosition=middle;align=center;horizontal=1;spacingTop=0;strokeColor=#028090;fontColor=#E4FDE1;" parent="qB2Rg0o0fhjjosjWZkIm-45" vertex="1">
          <mxGeometry x="146" width="49" height="49" as="geometry" />
        </mxCell>
        <mxCell id="qB2Rg0o0fhjjosjWZkIm-50" value="3" style="shape=partialRectangle;html=1;whiteSpace=wrap;connectable=0;overflow=hidden;fillColor=none;top=0;left=0;bottom=0;right=0;fontSize=50;direction=north;flipH=0;flipV=0;verticalAlign=top;labelPosition=center;verticalLabelPosition=middle;align=center;horizontal=1;spacingTop=0;strokeColor=#028090;fontColor=#E4FDE1;" parent="qB2Rg0o0fhjjosjWZkIm-45" vertex="1">
          <mxGeometry x="195" width="49" height="49" as="geometry" />
        </mxCell>
        <mxCell id="qB2Rg0o0fhjjosjWZkIm-51" value="3" style="shape=partialRectangle;html=1;whiteSpace=wrap;connectable=0;overflow=hidden;fillColor=none;top=0;left=0;bottom=0;right=0;fontSize=50;direction=north;flipH=0;flipV=0;verticalAlign=top;labelPosition=center;verticalLabelPosition=middle;align=center;horizontal=1;spacingTop=0;strokeColor=#028090;fontColor=#E4FDE1;" parent="qB2Rg0o0fhjjosjWZkIm-45" vertex="1">
          <mxGeometry x="244" width="49" height="49" as="geometry" />
        </mxCell>
        <mxCell id="qB2Rg0o0fhjjosjWZkIm-52" value="." style="shape=partialRectangle;html=1;whiteSpace=wrap;connectable=0;overflow=hidden;fillColor=none;top=0;left=0;bottom=0;right=0;fontSize=50;direction=north;flipH=0;flipV=0;verticalAlign=middle;labelPosition=center;verticalLabelPosition=middle;align=center;horizontal=0;spacingTop=-15;strokeColor=#028090;fontColor=#E4FDE1;" parent="qB2Rg0o0fhjjosjWZkIm-45" vertex="1">
          <mxGeometry x="293" width="48" height="49" as="geometry" />
        </mxCell>
        <mxCell id="qB2Rg0o0fhjjosjWZkIm-53" value="." style="shape=partialRectangle;html=1;whiteSpace=wrap;connectable=0;overflow=hidden;fillColor=none;top=0;left=0;bottom=0;right=0;fontSize=50;direction=north;flipH=0;flipV=0;verticalAlign=middle;labelPosition=center;verticalLabelPosition=middle;align=center;horizontal=0;spacingTop=-15;strokeColor=#028090;fontColor=#E4FDE1;" parent="qB2Rg0o0fhjjosjWZkIm-45" vertex="1">
          <mxGeometry x="341" width="49" height="49" as="geometry" />
        </mxCell>
        <mxCell id="qB2Rg0o0fhjjosjWZkIm-54" value="" style="shape=partialRectangle;html=1;whiteSpace=wrap;collapsible=0;dropTarget=0;pointerEvents=0;fillColor=none;top=0;left=0;bottom=0;right=0;points=[[0,0.5],[1,0.5]];portConstraint=eastwest;fontSize=50;direction=north;flipH=0;flipV=0;verticalAlign=middle;labelPosition=center;verticalLabelPosition=middle;align=center;horizontal=0;spacingTop=-15;strokeColor=#028090;fontColor=#E4FDE1;" parent="qB2Rg0o0fhjjosjWZkIm-17" vertex="1">
          <mxGeometry y="195" width="390" height="49" as="geometry" />
        </mxCell>
        <mxCell id="qB2Rg0o0fhjjosjWZkIm-55" value="." style="shape=partialRectangle;html=1;whiteSpace=wrap;connectable=0;overflow=hidden;fillColor=none;top=0;left=0;bottom=0;right=0;fontSize=50;direction=north;flipH=0;flipV=0;verticalAlign=middle;labelPosition=center;verticalLabelPosition=middle;align=center;horizontal=0;spacingTop=-15;strokeColor=#028090;fontColor=#E4FDE1;" parent="qB2Rg0o0fhjjosjWZkIm-54" vertex="1">
          <mxGeometry width="49" height="49" as="geometry" />
        </mxCell>
        <mxCell id="qB2Rg0o0fhjjosjWZkIm-56" value="4" style="shape=partialRectangle;html=1;whiteSpace=wrap;connectable=0;overflow=hidden;fillColor=none;top=0;left=0;bottom=0;right=0;fontSize=50;direction=north;flipH=0;flipV=0;verticalAlign=top;labelPosition=center;verticalLabelPosition=middle;align=center;horizontal=1;spacingTop=0;strokeColor=#028090;fontColor=#E4FDE1;" parent="qB2Rg0o0fhjjosjWZkIm-54" vertex="1">
          <mxGeometry x="49" width="49" height="49" as="geometry" />
        </mxCell>
        <mxCell id="qB2Rg0o0fhjjosjWZkIm-57" value="." style="shape=partialRectangle;html=1;whiteSpace=wrap;connectable=0;overflow=hidden;fillColor=none;top=0;left=0;bottom=0;right=0;fontSize=50;direction=north;flipH=0;flipV=0;verticalAlign=middle;labelPosition=center;verticalLabelPosition=middle;align=center;horizontal=0;spacingTop=-15;strokeColor=#028090;fontColor=#E4FDE1;" parent="qB2Rg0o0fhjjosjWZkIm-54" vertex="1">
          <mxGeometry x="98" width="48" height="49" as="geometry" />
        </mxCell>
        <mxCell id="qB2Rg0o0fhjjosjWZkIm-58" value="." style="shape=partialRectangle;html=1;whiteSpace=wrap;connectable=0;overflow=hidden;fillColor=none;top=0;left=0;bottom=0;right=0;fontSize=50;direction=north;flipH=0;flipV=0;verticalAlign=middle;labelPosition=center;verticalLabelPosition=middle;align=center;horizontal=0;spacingTop=-15;strokeColor=#028090;fontColor=#E4FDE1;" parent="qB2Rg0o0fhjjosjWZkIm-54" vertex="1">
          <mxGeometry x="146" width="49" height="49" as="geometry" />
        </mxCell>
        <mxCell id="qB2Rg0o0fhjjosjWZkIm-59" value="." style="shape=partialRectangle;html=1;whiteSpace=wrap;connectable=0;overflow=hidden;fillColor=none;top=0;left=0;bottom=0;right=0;fontSize=50;direction=north;flipH=0;flipV=0;verticalAlign=middle;labelPosition=center;verticalLabelPosition=middle;align=center;horizontal=0;spacingTop=-15;strokeColor=#028090;fontColor=#E4FDE1;" parent="qB2Rg0o0fhjjosjWZkIm-54" vertex="1">
          <mxGeometry x="195" width="49" height="49" as="geometry" />
        </mxCell>
        <mxCell id="qB2Rg0o0fhjjosjWZkIm-60" value="." style="shape=partialRectangle;html=1;whiteSpace=wrap;connectable=0;overflow=hidden;fillColor=none;top=0;left=0;bottom=0;right=0;fontSize=50;direction=north;flipH=0;flipV=0;verticalAlign=middle;labelPosition=center;verticalLabelPosition=middle;align=center;horizontal=0;spacingTop=-15;strokeColor=#028090;fontColor=#E4FDE1;" parent="qB2Rg0o0fhjjosjWZkIm-54" vertex="1">
          <mxGeometry x="244" width="49" height="49" as="geometry" />
        </mxCell>
        <mxCell id="qB2Rg0o0fhjjosjWZkIm-61" value="." style="shape=partialRectangle;html=1;whiteSpace=wrap;connectable=0;overflow=hidden;fillColor=none;top=0;left=0;bottom=0;right=0;fontSize=50;direction=north;flipH=0;flipV=0;verticalAlign=middle;labelPosition=center;verticalLabelPosition=middle;align=center;horizontal=0;spacingTop=-15;strokeColor=#028090;fontColor=#E4FDE1;" parent="qB2Rg0o0fhjjosjWZkIm-54" vertex="1">
          <mxGeometry x="293" width="48" height="49" as="geometry" />
        </mxCell>
        <mxCell id="qB2Rg0o0fhjjosjWZkIm-62" value="." style="shape=partialRectangle;html=1;whiteSpace=wrap;connectable=0;overflow=hidden;fillColor=none;top=0;left=0;bottom=0;right=0;fontSize=50;direction=north;flipH=0;flipV=0;verticalAlign=middle;labelPosition=center;verticalLabelPosition=middle;align=center;horizontal=0;spacingTop=-15;strokeColor=#028090;fontColor=#E4FDE1;" parent="qB2Rg0o0fhjjosjWZkIm-54" vertex="1">
          <mxGeometry x="341" width="49" height="49" as="geometry" />
        </mxCell>
        <mxCell id="qB2Rg0o0fhjjosjWZkIm-63" value="" style="shape=partialRectangle;html=1;whiteSpace=wrap;collapsible=0;dropTarget=0;pointerEvents=0;fillColor=none;top=0;left=0;bottom=0;right=0;points=[[0,0.5],[1,0.5]];portConstraint=eastwest;fontSize=50;direction=north;flipH=0;flipV=0;verticalAlign=middle;labelPosition=center;verticalLabelPosition=middle;align=center;horizontal=0;spacingTop=-15;strokeColor=#028090;fontColor=#E4FDE1;" parent="qB2Rg0o0fhjjosjWZkIm-17" vertex="1">
          <mxGeometry y="244" width="390" height="49" as="geometry" />
        </mxCell>
        <mxCell id="qB2Rg0o0fhjjosjWZkIm-64" value="." style="shape=partialRectangle;html=1;whiteSpace=wrap;connectable=0;overflow=hidden;fillColor=none;top=0;left=0;bottom=0;right=0;fontSize=50;direction=north;flipH=0;flipV=0;verticalAlign=middle;labelPosition=center;verticalLabelPosition=middle;align=center;horizontal=0;spacingTop=-15;strokeColor=#028090;fontColor=#E4FDE1;" parent="qB2Rg0o0fhjjosjWZkIm-63" vertex="1">
          <mxGeometry width="49" height="49" as="geometry" />
        </mxCell>
        <mxCell id="qB2Rg0o0fhjjosjWZkIm-65" value="4" style="shape=partialRectangle;html=1;whiteSpace=wrap;connectable=0;overflow=hidden;fillColor=none;top=0;left=0;bottom=0;right=0;fontSize=50;direction=north;flipH=0;flipV=0;verticalAlign=top;labelPosition=center;verticalLabelPosition=middle;align=center;horizontal=1;spacingTop=0;strokeColor=#028090;fontColor=#E4FDE1;" parent="qB2Rg0o0fhjjosjWZkIm-63" vertex="1">
          <mxGeometry x="49" width="49" height="49" as="geometry" />
        </mxCell>
        <mxCell id="qB2Rg0o0fhjjosjWZkIm-66" value="." style="shape=partialRectangle;html=1;whiteSpace=wrap;connectable=0;overflow=hidden;fillColor=none;top=0;left=0;bottom=0;right=0;fontSize=50;direction=north;flipH=0;flipV=0;verticalAlign=middle;labelPosition=center;verticalLabelPosition=middle;align=center;horizontal=0;spacingTop=-15;strokeColor=#028090;fontColor=#E4FDE1;" parent="qB2Rg0o0fhjjosjWZkIm-63" vertex="1">
          <mxGeometry x="98" width="48" height="49" as="geometry" />
        </mxCell>
        <mxCell id="qB2Rg0o0fhjjosjWZkIm-67" value="." style="shape=partialRectangle;html=1;whiteSpace=wrap;connectable=0;overflow=hidden;fillColor=none;top=0;left=0;bottom=0;right=0;fontSize=50;direction=north;flipH=0;flipV=0;verticalAlign=middle;labelPosition=center;verticalLabelPosition=middle;align=center;horizontal=0;spacingTop=-15;strokeColor=#028090;fontColor=#E4FDE1;" parent="qB2Rg0o0fhjjosjWZkIm-63" vertex="1">
          <mxGeometry x="146" width="49" height="49" as="geometry" />
        </mxCell>
        <mxCell id="qB2Rg0o0fhjjosjWZkIm-68" value="." style="shape=partialRectangle;html=1;whiteSpace=wrap;connectable=0;overflow=hidden;fillColor=none;top=0;left=0;bottom=0;right=0;fontSize=50;direction=north;flipH=0;flipV=0;verticalAlign=middle;labelPosition=center;verticalLabelPosition=middle;align=center;horizontal=0;spacingTop=-15;strokeColor=#028090;fontColor=#E4FDE1;" parent="qB2Rg0o0fhjjosjWZkIm-63" vertex="1">
          <mxGeometry x="195" width="49" height="49" as="geometry" />
        </mxCell>
        <mxCell id="qB2Rg0o0fhjjosjWZkIm-69" value="." style="shape=partialRectangle;html=1;whiteSpace=wrap;connectable=0;overflow=hidden;fillColor=none;top=0;left=0;bottom=0;right=0;fontSize=50;direction=north;flipH=0;flipV=0;verticalAlign=middle;labelPosition=center;verticalLabelPosition=middle;align=center;horizontal=0;spacingTop=-15;strokeColor=#028090;fontColor=#E4FDE1;" parent="qB2Rg0o0fhjjosjWZkIm-63" vertex="1">
          <mxGeometry x="244" width="49" height="49" as="geometry" />
        </mxCell>
        <mxCell id="qB2Rg0o0fhjjosjWZkIm-70" value="." style="shape=partialRectangle;html=1;whiteSpace=wrap;connectable=0;overflow=hidden;fillColor=none;top=0;left=0;bottom=0;right=0;fontSize=50;direction=north;flipH=0;flipV=0;verticalAlign=middle;labelPosition=center;verticalLabelPosition=middle;align=center;horizontal=0;spacingTop=-15;strokeColor=#028090;fontColor=#E4FDE1;" parent="qB2Rg0o0fhjjosjWZkIm-63" vertex="1">
          <mxGeometry x="293" width="48" height="49" as="geometry" />
        </mxCell>
        <mxCell id="qB2Rg0o0fhjjosjWZkIm-71" value="." style="shape=partialRectangle;html=1;whiteSpace=wrap;connectable=0;overflow=hidden;fillColor=none;top=0;left=0;bottom=0;right=0;fontSize=50;direction=north;flipH=0;flipV=0;verticalAlign=middle;labelPosition=center;verticalLabelPosition=middle;align=center;horizontal=0;spacingTop=-15;strokeColor=#028090;fontColor=#E4FDE1;" parent="qB2Rg0o0fhjjosjWZkIm-63" vertex="1">
          <mxGeometry x="341" width="49" height="49" as="geometry" />
        </mxCell>
        <mxCell id="qB2Rg0o0fhjjosjWZkIm-72" value="" style="shape=partialRectangle;html=1;whiteSpace=wrap;collapsible=0;dropTarget=0;pointerEvents=0;fillColor=none;top=0;left=0;bottom=0;right=0;points=[[0,0.5],[1,0.5]];portConstraint=eastwest;fontSize=50;direction=north;flipH=0;flipV=0;verticalAlign=middle;labelPosition=center;verticalLabelPosition=middle;align=center;horizontal=0;spacingTop=-15;strokeColor=#028090;fontColor=#E4FDE1;" parent="qB2Rg0o0fhjjosjWZkIm-17" vertex="1">
          <mxGeometry y="293" width="390" height="48" as="geometry" />
        </mxCell>
        <mxCell id="qB2Rg0o0fhjjosjWZkIm-73" value="." style="shape=partialRectangle;html=1;whiteSpace=wrap;connectable=0;overflow=hidden;fillColor=none;top=0;left=0;bottom=0;right=0;fontSize=50;direction=north;flipH=0;flipV=0;verticalAlign=middle;labelPosition=center;verticalLabelPosition=middle;align=center;horizontal=0;spacingTop=-15;strokeColor=#028090;fontColor=#E4FDE1;" parent="qB2Rg0o0fhjjosjWZkIm-72" vertex="1">
          <mxGeometry width="49" height="48" as="geometry" />
        </mxCell>
        <mxCell id="qB2Rg0o0fhjjosjWZkIm-74" value="4" style="shape=partialRectangle;html=1;whiteSpace=wrap;connectable=0;overflow=hidden;fillColor=none;top=0;left=0;bottom=0;right=0;fontSize=50;direction=north;flipH=0;flipV=0;verticalAlign=top;labelPosition=center;verticalLabelPosition=middle;align=center;horizontal=1;spacingTop=0;strokeColor=#028090;fontColor=#E4FDE1;" parent="qB2Rg0o0fhjjosjWZkIm-72" vertex="1">
          <mxGeometry x="49" width="49" height="48" as="geometry" />
        </mxCell>
        <mxCell id="qB2Rg0o0fhjjosjWZkIm-75" value="." style="shape=partialRectangle;html=1;whiteSpace=wrap;connectable=0;overflow=hidden;fillColor=none;top=0;left=0;bottom=0;right=0;fontSize=50;direction=north;flipH=0;flipV=0;verticalAlign=middle;labelPosition=center;verticalLabelPosition=middle;align=center;horizontal=0;spacingTop=-15;strokeColor=#028090;fontColor=#E4FDE1;" parent="qB2Rg0o0fhjjosjWZkIm-72" vertex="1">
          <mxGeometry x="98" width="48" height="48" as="geometry" />
        </mxCell>
        <mxCell id="qB2Rg0o0fhjjosjWZkIm-76" value="5" style="shape=partialRectangle;html=1;whiteSpace=wrap;connectable=0;overflow=hidden;fillColor=none;top=0;left=0;bottom=0;right=0;fontSize=50;direction=north;flipH=0;flipV=0;verticalAlign=top;labelPosition=center;verticalLabelPosition=middle;align=center;horizontal=1;spacingTop=0;strokeColor=#028090;fontColor=#E4FDE1;" parent="qB2Rg0o0fhjjosjWZkIm-72" vertex="1">
          <mxGeometry x="146" width="49" height="48" as="geometry" />
        </mxCell>
        <mxCell id="qB2Rg0o0fhjjosjWZkIm-77" value="5" style="shape=partialRectangle;html=1;whiteSpace=wrap;connectable=0;overflow=hidden;fillColor=none;top=0;left=0;bottom=0;right=0;fontSize=50;direction=north;flipH=0;flipV=0;verticalAlign=top;labelPosition=center;verticalLabelPosition=middle;align=center;horizontal=1;spacingTop=0;strokeColor=#028090;fontColor=#E4FDE1;" parent="qB2Rg0o0fhjjosjWZkIm-72" vertex="1">
          <mxGeometry x="195" width="49" height="48" as="geometry" />
        </mxCell>
        <mxCell id="qB2Rg0o0fhjjosjWZkIm-78" value="5" style="shape=partialRectangle;html=1;whiteSpace=wrap;connectable=0;overflow=hidden;fillColor=none;top=0;left=0;bottom=0;right=0;fontSize=50;direction=north;flipH=0;flipV=0;verticalAlign=top;labelPosition=center;verticalLabelPosition=middle;align=center;horizontal=1;spacingTop=0;strokeColor=#028090;fontColor=#E4FDE1;" parent="qB2Rg0o0fhjjosjWZkIm-72" vertex="1">
          <mxGeometry x="244" width="49" height="48" as="geometry" />
        </mxCell>
        <mxCell id="qB2Rg0o0fhjjosjWZkIm-79" value="5" style="shape=partialRectangle;html=1;whiteSpace=wrap;connectable=0;overflow=hidden;fillColor=none;top=0;left=0;bottom=0;right=0;fontSize=50;direction=north;flipH=0;flipV=0;verticalAlign=top;labelPosition=center;verticalLabelPosition=middle;align=center;horizontal=1;spacingTop=0;strokeColor=#028090;fontColor=#E4FDE1;" parent="qB2Rg0o0fhjjosjWZkIm-72" vertex="1">
          <mxGeometry x="293" width="48" height="48" as="geometry" />
        </mxCell>
        <mxCell id="qB2Rg0o0fhjjosjWZkIm-80" value="5" style="shape=partialRectangle;html=1;whiteSpace=wrap;connectable=0;overflow=hidden;fillColor=none;top=0;left=0;bottom=0;right=0;fontSize=50;direction=north;flipH=0;flipV=0;verticalAlign=top;labelPosition=center;verticalLabelPosition=middle;align=center;horizontal=1;spacingTop=0;strokeColor=#028090;fontColor=#E4FDE1;" parent="qB2Rg0o0fhjjosjWZkIm-72" vertex="1">
          <mxGeometry x="341" width="49" height="48" as="geometry" />
        </mxCell>
        <mxCell id="qB2Rg0o0fhjjosjWZkIm-81" value="" style="shape=partialRectangle;html=1;whiteSpace=wrap;collapsible=0;dropTarget=0;pointerEvents=0;fillColor=none;top=0;left=0;bottom=0;right=0;points=[[0,0.5],[1,0.5]];portConstraint=eastwest;fontSize=50;direction=north;flipH=0;flipV=0;verticalAlign=middle;labelPosition=center;verticalLabelPosition=middle;align=center;horizontal=0;spacingTop=-15;strokeColor=#028090;fontColor=#E4FDE1;" parent="qB2Rg0o0fhjjosjWZkIm-17" vertex="1">
          <mxGeometry y="341" width="390" height="49" as="geometry" />
        </mxCell>
        <mxCell id="qB2Rg0o0fhjjosjWZkIm-82" value="." style="shape=partialRectangle;html=1;whiteSpace=wrap;connectable=0;overflow=hidden;fillColor=none;top=0;left=0;bottom=0;right=0;fontSize=50;direction=north;flipH=0;flipV=0;verticalAlign=middle;labelPosition=center;verticalLabelPosition=middle;align=center;horizontal=0;spacingTop=-15;strokeColor=#028090;fontColor=#E4FDE1;" parent="qB2Rg0o0fhjjosjWZkIm-81" vertex="1">
          <mxGeometry width="49" height="49" as="geometry" />
        </mxCell>
        <mxCell id="qB2Rg0o0fhjjosjWZkIm-83" value="4" style="shape=partialRectangle;html=1;whiteSpace=wrap;connectable=0;overflow=hidden;fillColor=none;top=0;left=0;bottom=0;right=0;fontSize=50;direction=north;flipH=0;flipV=0;verticalAlign=top;labelPosition=center;verticalLabelPosition=middle;align=center;horizontal=1;spacingTop=0;strokeColor=#028090;fontColor=#E4FDE1;" parent="qB2Rg0o0fhjjosjWZkIm-81" vertex="1">
          <mxGeometry x="49" width="49" height="49" as="geometry" />
        </mxCell>
        <mxCell id="qB2Rg0o0fhjjosjWZkIm-84" value="." style="shape=partialRectangle;html=1;whiteSpace=wrap;connectable=0;overflow=hidden;fillColor=none;top=0;left=0;bottom=0;right=0;fontSize=50;direction=north;flipH=0;flipV=0;verticalAlign=middle;labelPosition=center;verticalLabelPosition=middle;align=center;horizontal=0;spacingTop=-15;strokeColor=#028090;fontColor=#E4FDE1;" parent="qB2Rg0o0fhjjosjWZkIm-81" vertex="1">
          <mxGeometry x="98" width="48" height="49" as="geometry" />
        </mxCell>
        <mxCell id="qB2Rg0o0fhjjosjWZkIm-85" value="." style="shape=partialRectangle;html=1;whiteSpace=wrap;connectable=0;overflow=hidden;fillColor=none;top=0;left=0;bottom=0;right=0;fontSize=50;direction=north;flipH=0;flipV=0;verticalAlign=middle;labelPosition=center;verticalLabelPosition=middle;align=center;horizontal=0;spacingTop=-15;strokeColor=#028090;fontColor=#E4FDE1;" parent="qB2Rg0o0fhjjosjWZkIm-81" vertex="1">
          <mxGeometry x="146" width="49" height="49" as="geometry" />
        </mxCell>
        <mxCell id="qB2Rg0o0fhjjosjWZkIm-86" value="." style="shape=partialRectangle;html=1;whiteSpace=wrap;connectable=0;overflow=hidden;fillColor=none;top=0;left=0;bottom=0;right=0;fontSize=50;direction=north;flipH=0;flipV=0;verticalAlign=middle;labelPosition=center;verticalLabelPosition=middle;align=center;horizontal=0;spacingTop=-15;strokeColor=#028090;fontColor=#E4FDE1;" parent="qB2Rg0o0fhjjosjWZkIm-81" vertex="1">
          <mxGeometry x="195" width="49" height="49" as="geometry" />
        </mxCell>
        <mxCell id="qB2Rg0o0fhjjosjWZkIm-87" value="." style="shape=partialRectangle;html=1;whiteSpace=wrap;connectable=0;overflow=hidden;fillColor=none;top=0;left=0;bottom=0;right=0;fontSize=50;direction=north;flipH=0;flipV=0;verticalAlign=middle;labelPosition=center;verticalLabelPosition=middle;align=center;horizontal=0;spacingTop=-15;strokeColor=#028090;fontColor=#E4FDE1;" parent="qB2Rg0o0fhjjosjWZkIm-81" vertex="1">
          <mxGeometry x="244" width="49" height="49" as="geometry" />
        </mxCell>
        <mxCell id="qB2Rg0o0fhjjosjWZkIm-88" value="." style="shape=partialRectangle;html=1;whiteSpace=wrap;connectable=0;overflow=hidden;fillColor=none;top=0;left=0;bottom=0;right=0;fontSize=50;direction=north;flipH=0;flipV=0;verticalAlign=middle;labelPosition=center;verticalLabelPosition=middle;align=center;horizontal=0;spacingTop=-15;strokeColor=#028090;fontColor=#E4FDE1;" parent="qB2Rg0o0fhjjosjWZkIm-81" vertex="1">
          <mxGeometry x="293" width="48" height="49" as="geometry" />
        </mxCell>
        <mxCell id="qB2Rg0o0fhjjosjWZkIm-89" value="." style="shape=partialRectangle;html=1;whiteSpace=wrap;connectable=0;overflow=hidden;fillColor=none;top=0;left=0;bottom=0;right=0;fontSize=50;direction=north;flipH=0;flipV=0;verticalAlign=middle;labelPosition=center;verticalLabelPosition=middle;align=center;horizontal=0;spacingTop=-15;strokeColor=#028090;fontColor=#E4FDE1;" parent="qB2Rg0o0fhjjosjWZkIm-81" vertex="1">
          <mxGeometry x="341" width="49" height="49" as="geometry" />
        </mxCell>
      </root>
    </mxGraphModel>
  </diagram>
</mxfile>
